<mxfile host="app.diagrams.net" agent="Mozilla/5.0 (Windows NT 10.0; Win64; x64) AppleWebKit/537.36 (KHTML, like Gecko) Chrome/135.0.0.0 Safari/537.36" version="26.2.14">
  <diagram name="Page-1" id="IzSsY7zzdCAob9K-BpRR">
    <mxGraphModel dx="2316" dy="1996" grid="1" gridSize="10" guides="1" tooltips="1" connect="1" arrows="1" fold="1" page="1" pageScale="1" pageWidth="827" pageHeight="1169" math="0" shadow="0">
      <root>
        <mxCell id="0" />
        <mxCell id="1" parent="0" />
        <mxCell id="8RMNlt9CvRjKdPwkDtNw-29" value="1" style="edgeStyle=orthogonalEdgeStyle;rounded=0;orthogonalLoop=1;jettySize=auto;html=1;entryX=0;entryY=0.5;entryDx=0;entryDy=0;endArrow=none;startFill=0;" parent="1" target="8RMNlt9CvRjKdPwkDtNw-28" edge="1">
          <mxGeometry x="-0.3615" relative="1" as="geometry">
            <mxPoint x="190" y="240" as="targetPoint" />
            <mxPoint x="189.75" y="120" as="sourcePoint" />
            <mxPoint as="offset" />
          </mxGeometry>
        </mxCell>
        <mxCell id="8RMNlt9CvRjKdPwkDtNw-34" value="1" style="edgeStyle=orthogonalEdgeStyle;rounded=0;orthogonalLoop=1;jettySize=auto;html=1;endArrow=none;startFill=0;" parent="1" source="8RMNlt9CvRjKdPwkDtNw-1" target="8RMNlt9CvRjKdPwkDtNw-32" edge="1">
          <mxGeometry x="-0.84" relative="1" as="geometry">
            <mxPoint as="offset" />
          </mxGeometry>
        </mxCell>
        <mxCell id="8RMNlt9CvRjKdPwkDtNw-1" value="user" style="rounded=0;whiteSpace=wrap;html=1;" parent="1" vertex="1">
          <mxGeometry x="130" y="70" width="120" height="60" as="geometry" />
        </mxCell>
        <mxCell id="8RMNlt9CvRjKdPwkDtNw-2" value="username" style="ellipse;whiteSpace=wrap;html=1;" parent="1" vertex="1">
          <mxGeometry x="260" y="-10.11" width="60" height="50" as="geometry" />
        </mxCell>
        <mxCell id="8RMNlt9CvRjKdPwkDtNw-3" value="username" style="ellipse;whiteSpace=wrap;html=1;" parent="1" vertex="1">
          <mxGeometry x="120" y="-80" width="60" height="50" as="geometry" />
        </mxCell>
        <mxCell id="8RMNlt9CvRjKdPwkDtNw-4" value="password" style="ellipse;whiteSpace=wrap;html=1;" parent="1" vertex="1">
          <mxGeometry x="20" y="34.89" width="60" height="50" as="geometry" />
        </mxCell>
        <mxCell id="8RMNlt9CvRjKdPwkDtNw-5" value="email" style="ellipse;whiteSpace=wrap;html=1;" parent="1" vertex="1">
          <mxGeometry x="-40" y="-15.11" width="60" height="50" as="geometry" />
        </mxCell>
        <mxCell id="8RMNlt9CvRjKdPwkDtNw-7" value="address" style="ellipse;whiteSpace=wrap;html=1;" parent="1" vertex="1">
          <mxGeometry x="20" y="-60.11" width="60" height="50" as="geometry" />
        </mxCell>
        <mxCell id="8RMNlt9CvRjKdPwkDtNw-8" value="fullname" style="ellipse;whiteSpace=wrap;html=1;" parent="1" vertex="1">
          <mxGeometry x="200" y="-70.11" width="60" height="50" as="geometry" />
        </mxCell>
        <mxCell id="8RMNlt9CvRjKdPwkDtNw-42" value="1" style="edgeStyle=orthogonalEdgeStyle;rounded=0;orthogonalLoop=1;jettySize=auto;html=1;exitX=1;exitY=0.75;exitDx=0;exitDy=0;entryX=0.5;entryY=0;entryDx=0;entryDy=0;endArrow=none;startFill=0;" parent="1" source="8RMNlt9CvRjKdPwkDtNw-10" target="8RMNlt9CvRjKdPwkDtNw-40" edge="1">
          <mxGeometry relative="1" as="geometry">
            <mxPoint x="520.1111111111109" y="100.00111111111131" as="targetPoint" />
          </mxGeometry>
        </mxCell>
        <mxCell id="8RMNlt9CvRjKdPwkDtNw-10" value="team" style="rounded=0;whiteSpace=wrap;html=1;" parent="1" vertex="1">
          <mxGeometry x="370" y="29.89" width="120" height="60" as="geometry" />
        </mxCell>
        <mxCell id="8RMNlt9CvRjKdPwkDtNw-12" value="team_id" style="ellipse;whiteSpace=wrap;html=1;" parent="1" vertex="1">
          <mxGeometry x="360" y="-70.11" width="60" height="50" as="geometry" />
        </mxCell>
        <mxCell id="8RMNlt9CvRjKdPwkDtNw-13" value="T-name" style="ellipse;whiteSpace=wrap;html=1;" parent="1" vertex="1">
          <mxGeometry x="450" y="-70.11" width="60" height="50" as="geometry" />
        </mxCell>
        <mxCell id="8RMNlt9CvRjKdPwkDtNw-47" value="1" style="edgeStyle=orthogonalEdgeStyle;rounded=0;orthogonalLoop=1;jettySize=auto;html=1;entryX=0.5;entryY=0;entryDx=0;entryDy=0;endArrow=none;startFill=0;" parent="1" source="8RMNlt9CvRjKdPwkDtNw-16" target="8RMNlt9CvRjKdPwkDtNw-46" edge="1">
          <mxGeometry x="-0.6923" relative="1" as="geometry">
            <Array as="points">
              <mxPoint x="650" y="80" />
            </Array>
            <mxPoint as="offset" />
          </mxGeometry>
        </mxCell>
        <mxCell id="8RMNlt9CvRjKdPwkDtNw-51" value="1" style="edgeStyle=orthogonalEdgeStyle;rounded=0;orthogonalLoop=1;jettySize=auto;html=1;entryX=0.5;entryY=0;entryDx=0;entryDy=0;endArrow=none;startFill=0;" parent="1" source="8RMNlt9CvRjKdPwkDtNw-16" target="8RMNlt9CvRjKdPwkDtNw-50" edge="1">
          <mxGeometry relative="1" as="geometry">
            <Array as="points">
              <mxPoint x="820" y="110" />
              <mxPoint x="820" y="110" />
            </Array>
          </mxGeometry>
        </mxCell>
        <mxCell id="vk-GKiC78UOM6kpSm9EQ-1" value="1" style="edgeStyle=orthogonalEdgeStyle;rounded=0;orthogonalLoop=1;jettySize=auto;html=1;entryX=1;entryY=0.5;entryDx=0;entryDy=0;endArrow=none;startFill=0;" parent="1" source="8RMNlt9CvRjKdPwkDtNw-16" target="8RMNlt9CvRjKdPwkDtNw-36" edge="1">
          <mxGeometry relative="1" as="geometry" />
        </mxCell>
        <mxCell id="8RMNlt9CvRjKdPwkDtNw-16" value="match" style="rounded=0;whiteSpace=wrap;html=1;" parent="1" vertex="1">
          <mxGeometry x="720" y="29.89" width="120" height="60" as="geometry" />
        </mxCell>
        <mxCell id="8RMNlt9CvRjKdPwkDtNw-17" value="match_id" style="ellipse;whiteSpace=wrap;html=1;" parent="1" vertex="1">
          <mxGeometry x="630" y="-60.11" width="60" height="50" as="geometry" />
        </mxCell>
        <mxCell id="8RMNlt9CvRjKdPwkDtNw-18" value="home_team_id" style="ellipse;whiteSpace=wrap;html=1;" parent="1" vertex="1">
          <mxGeometry x="670" y="-130.11" width="90" height="50" as="geometry" />
        </mxCell>
        <mxCell id="8RMNlt9CvRjKdPwkDtNw-20" value="away_team_id" style="ellipse;whiteSpace=wrap;html=1;" parent="1" vertex="1">
          <mxGeometry x="770" y="-130.11" width="90" height="50" as="geometry" />
        </mxCell>
        <mxCell id="8RMNlt9CvRjKdPwkDtNw-22" value="status" style="ellipse;whiteSpace=wrap;html=1;" parent="1" vertex="1">
          <mxGeometry x="950" y="-10.11" width="60" height="50" as="geometry" />
        </mxCell>
        <mxCell id="8RMNlt9CvRjKdPwkDtNw-24" value="prediction" style="rounded=0;whiteSpace=wrap;html=1;" parent="1" vertex="1">
          <mxGeometry x="940" y="150" width="120" height="60" as="geometry" />
        </mxCell>
        <mxCell id="8RMNlt9CvRjKdPwkDtNw-54" value="1" style="edgeStyle=orthogonalEdgeStyle;rounded=0;orthogonalLoop=1;jettySize=auto;html=1;endArrow=none;startFill=0;" parent="1" source="8RMNlt9CvRjKdPwkDtNw-25" target="8RMNlt9CvRjKdPwkDtNw-53" edge="1">
          <mxGeometry x="-0.7778" relative="1" as="geometry">
            <mxPoint as="offset" />
          </mxGeometry>
        </mxCell>
        <mxCell id="8RMNlt9CvRjKdPwkDtNw-25" value="Match Statistic" style="rounded=0;whiteSpace=wrap;html=1;" parent="1" vertex="1">
          <mxGeometry x="460" y="510" width="120" height="60" as="geometry" />
        </mxCell>
        <mxCell id="8RMNlt9CvRjKdPwkDtNw-27" value="Favorite Team" style="rounded=0;whiteSpace=wrap;html=1;" parent="1" vertex="1">
          <mxGeometry x="-60" y="380" width="120" height="60" as="geometry" />
        </mxCell>
        <mxCell id="8RMNlt9CvRjKdPwkDtNw-30" value="M" style="edgeStyle=orthogonalEdgeStyle;rounded=0;orthogonalLoop=1;jettySize=auto;html=1;entryX=0.5;entryY=1;entryDx=0;entryDy=0;endArrow=none;startFill=0;" parent="1" source="8RMNlt9CvRjKdPwkDtNw-28" target="8RMNlt9CvRjKdPwkDtNw-24" edge="1">
          <mxGeometry x="0.9273" relative="1" as="geometry">
            <mxPoint x="1000" y="220" as="targetPoint" />
            <Array as="points">
              <mxPoint x="1000" y="240" />
            </Array>
            <mxPoint as="offset" />
          </mxGeometry>
        </mxCell>
        <mxCell id="8RMNlt9CvRjKdPwkDtNw-28" value="predict" style="rhombus;whiteSpace=wrap;html=1;" parent="1" vertex="1">
          <mxGeometry x="290" y="200" width="80" height="80" as="geometry" />
        </mxCell>
        <mxCell id="8RMNlt9CvRjKdPwkDtNw-35" value="M" style="edgeStyle=orthogonalEdgeStyle;rounded=0;orthogonalLoop=1;jettySize=auto;html=1;endArrow=none;startFill=0;" parent="1" source="8RMNlt9CvRjKdPwkDtNw-32" target="8RMNlt9CvRjKdPwkDtNw-27" edge="1">
          <mxGeometry relative="1" as="geometry" />
        </mxCell>
        <mxCell id="8RMNlt9CvRjKdPwkDtNw-32" value="has" style="rhombus;whiteSpace=wrap;html=1;" parent="1" vertex="1">
          <mxGeometry x="-40" y="220" width="80" height="80" as="geometry" />
        </mxCell>
        <mxCell id="8RMNlt9CvRjKdPwkDtNw-44" value="M" style="edgeStyle=orthogonalEdgeStyle;rounded=0;orthogonalLoop=1;jettySize=auto;html=1;endArrow=none;startFill=0;" parent="1" source="8RMNlt9CvRjKdPwkDtNw-40" target="8RMNlt9CvRjKdPwkDtNw-25" edge="1">
          <mxGeometry x="0.625" relative="1" as="geometry">
            <mxPoint as="offset" />
          </mxGeometry>
        </mxCell>
        <mxCell id="8RMNlt9CvRjKdPwkDtNw-40" value="has" style="rhombus;whiteSpace=wrap;html=1;" parent="1" vertex="1">
          <mxGeometry x="480" y="140" width="80" height="80" as="geometry" />
        </mxCell>
        <mxCell id="8RMNlt9CvRjKdPwkDtNw-46" value="has" style="rhombus;whiteSpace=wrap;html=1;" parent="1" vertex="1">
          <mxGeometry x="610" y="140" width="80" height="80" as="geometry" />
        </mxCell>
        <mxCell id="vk-GKiC78UOM6kpSm9EQ-2" value="M" style="edgeStyle=orthogonalEdgeStyle;rounded=0;orthogonalLoop=1;jettySize=auto;html=1;entryX=1;entryY=0.5;entryDx=0;entryDy=0;endArrow=none;startFill=0;" parent="1" source="8RMNlt9CvRjKdPwkDtNw-36" target="8RMNlt9CvRjKdPwkDtNw-10" edge="1">
          <mxGeometry relative="1" as="geometry" />
        </mxCell>
        <mxCell id="8RMNlt9CvRjKdPwkDtNw-36" value="has" style="rhombus;whiteSpace=wrap;html=1;" parent="1" vertex="1">
          <mxGeometry x="560" y="19.89" width="80" height="80" as="geometry" />
        </mxCell>
        <mxCell id="8RMNlt9CvRjKdPwkDtNw-49" value="1" style="edgeStyle=orthogonalEdgeStyle;rounded=0;orthogonalLoop=1;jettySize=auto;html=1;endArrow=none;startFill=0;" parent="1" source="8RMNlt9CvRjKdPwkDtNw-46" edge="1">
          <mxGeometry x="0.799" y="2" relative="1" as="geometry">
            <mxPoint as="offset" />
            <mxPoint x="568" y="510" as="targetPoint" />
          </mxGeometry>
        </mxCell>
        <mxCell id="8RMNlt9CvRjKdPwkDtNw-52" value="M" style="edgeStyle=orthogonalEdgeStyle;rounded=0;orthogonalLoop=1;jettySize=auto;html=1;entryX=0;entryY=0.5;entryDx=0;entryDy=0;endArrow=none;startFill=0;" parent="1" source="8RMNlt9CvRjKdPwkDtNw-50" target="8RMNlt9CvRjKdPwkDtNw-24" edge="1">
          <mxGeometry x="0.6" relative="1" as="geometry">
            <mxPoint as="offset" />
          </mxGeometry>
        </mxCell>
        <mxCell id="8RMNlt9CvRjKdPwkDtNw-50" value="has" style="rhombus;whiteSpace=wrap;html=1;" parent="1" vertex="1">
          <mxGeometry x="780" y="140" width="80" height="80" as="geometry" />
        </mxCell>
        <mxCell id="8RMNlt9CvRjKdPwkDtNw-55" value="1" style="edgeStyle=orthogonalEdgeStyle;rounded=0;orthogonalLoop=1;jettySize=auto;html=1;endArrow=none;startFill=0;" parent="1" source="8RMNlt9CvRjKdPwkDtNw-53" edge="1">
          <mxGeometry x="0.8337" relative="1" as="geometry">
            <mxPoint x="760" y="90" as="targetPoint" />
            <mxPoint as="offset" />
          </mxGeometry>
        </mxCell>
        <mxCell id="8RMNlt9CvRjKdPwkDtNw-53" value="belong to" style="rhombus;whiteSpace=wrap;html=1;" parent="1" vertex="1">
          <mxGeometry x="650" y="260" width="80" height="80" as="geometry" />
        </mxCell>
        <mxCell id="8RMNlt9CvRjKdPwkDtNw-58" value="M" style="edgeStyle=orthogonalEdgeStyle;rounded=0;orthogonalLoop=1;jettySize=auto;html=1;endArrow=none;startFill=0;" parent="1" source="8RMNlt9CvRjKdPwkDtNw-56" edge="1">
          <mxGeometry x="0.9167" relative="1" as="geometry">
            <mxPoint as="offset" />
            <mxPoint x="580" y="560" as="targetPoint" />
            <Array as="points">
              <mxPoint x="970" y="560" />
              <mxPoint x="580" y="560" />
            </Array>
          </mxGeometry>
        </mxCell>
        <mxCell id="8RMNlt9CvRjKdPwkDtNw-61" value="M" style="edgeStyle=orthogonalEdgeStyle;rounded=0;orthogonalLoop=1;jettySize=auto;html=1;entryX=0.25;entryY=1;entryDx=0;entryDy=0;endArrow=none;startFill=0;" parent="1" source="8RMNlt9CvRjKdPwkDtNw-56" target="8RMNlt9CvRjKdPwkDtNw-1" edge="1">
          <mxGeometry x="0.9652" relative="1" as="geometry">
            <mxPoint x="160" y="150.00000000000045" as="targetPoint" />
            <mxPoint as="offset" />
          </mxGeometry>
        </mxCell>
        <mxCell id="8RMNlt9CvRjKdPwkDtNw-56" value="manage" style="rhombus;whiteSpace=wrap;html=1;" parent="1" vertex="1">
          <mxGeometry x="930" y="450" width="80" height="80" as="geometry" />
        </mxCell>
        <mxCell id="8RMNlt9CvRjKdPwkDtNw-60" value="1" style="edgeStyle=orthogonalEdgeStyle;rounded=0;orthogonalLoop=1;jettySize=auto;html=1;entryX=0.5;entryY=0;entryDx=0;entryDy=0;endArrow=none;startFill=0;" parent="1" source="8RMNlt9CvRjKdPwkDtNw-57" target="8RMNlt9CvRjKdPwkDtNw-56" edge="1">
          <mxGeometry x="-0.92" relative="1" as="geometry">
            <mxPoint as="offset" />
          </mxGeometry>
        </mxCell>
        <mxCell id="8RMNlt9CvRjKdPwkDtNw-57" value="Admin" style="rounded=0;whiteSpace=wrap;html=1;" parent="1" vertex="1">
          <mxGeometry x="910" y="360" width="120" height="60" as="geometry" />
        </mxCell>
        <mxCell id="8RMNlt9CvRjKdPwkDtNw-63" value="home_score" style="ellipse;whiteSpace=wrap;html=1;" parent="1" vertex="1">
          <mxGeometry x="870" y="-120.11" width="90" height="50" as="geometry" />
        </mxCell>
        <mxCell id="8RMNlt9CvRjKdPwkDtNw-64" value="away_score" style="ellipse;whiteSpace=wrap;html=1;" parent="1" vertex="1">
          <mxGeometry x="935" y="-70.11000000000001" width="90" height="50" as="geometry" />
        </mxCell>
        <mxCell id="8RMNlt9CvRjKdPwkDtNw-65" value="prediction_id" style="ellipse;whiteSpace=wrap;html=1;" parent="1" vertex="1">
          <mxGeometry x="900" y="70" width="80" height="50" as="geometry" />
        </mxCell>
        <mxCell id="8RMNlt9CvRjKdPwkDtNw-66" value="username" style="ellipse;whiteSpace=wrap;html=1;" parent="1" vertex="1">
          <mxGeometry x="999" y="70" width="60" height="50" as="geometry" />
        </mxCell>
        <mxCell id="8RMNlt9CvRjKdPwkDtNw-67" value="predicted_home_score" style="ellipse;whiteSpace=wrap;html=1;" parent="1" vertex="1">
          <mxGeometry x="1080" y="70" width="150" height="50" as="geometry" />
        </mxCell>
        <mxCell id="8RMNlt9CvRjKdPwkDtNw-68" value="predicted_away_score" style="ellipse;whiteSpace=wrap;html=1;" parent="1" vertex="1">
          <mxGeometry x="1130" y="140" width="150" height="50" as="geometry" />
        </mxCell>
        <mxCell id="8RMNlt9CvRjKdPwkDtNw-69" value="red_cards_away" style="ellipse;whiteSpace=wrap;html=1;" parent="1" vertex="1">
          <mxGeometry x="610" y="590" width="150" height="50" as="geometry" />
        </mxCell>
        <mxCell id="8RMNlt9CvRjKdPwkDtNw-70" value="red_cards_home" style="ellipse;whiteSpace=wrap;html=1;" parent="1" vertex="1">
          <mxGeometry x="585" y="650" width="150" height="50" as="geometry" />
        </mxCell>
        <mxCell id="8RMNlt9CvRjKdPwkDtNw-71" style="edgeStyle=orthogonalEdgeStyle;rounded=0;orthogonalLoop=1;jettySize=auto;html=1;exitX=0.5;exitY=1;exitDx=0;exitDy=0;" parent="1" source="8RMNlt9CvRjKdPwkDtNw-70" target="8RMNlt9CvRjKdPwkDtNw-70" edge="1">
          <mxGeometry relative="1" as="geometry" />
        </mxCell>
        <mxCell id="8RMNlt9CvRjKdPwkDtNw-72" value="yellow_cards_away" style="ellipse;whiteSpace=wrap;html=1;" parent="1" vertex="1">
          <mxGeometry x="500" y="710" width="150" height="50" as="geometry" />
        </mxCell>
        <mxCell id="8RMNlt9CvRjKdPwkDtNw-73" value="yellow_cards_home" style="ellipse;whiteSpace=wrap;html=1;" parent="1" vertex="1">
          <mxGeometry x="390" y="760" width="150" height="50" as="geometry" />
        </mxCell>
        <mxCell id="8RMNlt9CvRjKdPwkDtNw-74" value="home_team" style="ellipse;whiteSpace=wrap;html=1;" parent="1" vertex="1">
          <mxGeometry x="264" y="800" width="150" height="50" as="geometry" />
        </mxCell>
        <mxCell id="8RMNlt9CvRjKdPwkDtNw-75" value="away_team" style="ellipse;whiteSpace=wrap;html=1;" parent="1" vertex="1">
          <mxGeometry x="170" y="740" width="150" height="50" as="geometry" />
        </mxCell>
        <mxCell id="8RMNlt9CvRjKdPwkDtNw-77" value="match_id" style="ellipse;whiteSpace=wrap;html=1;" parent="1" vertex="1">
          <mxGeometry x="170" y="670" width="150" height="50" as="geometry" />
        </mxCell>
        <mxCell id="8RMNlt9CvRjKdPwkDtNw-78" value="MS_id" style="ellipse;whiteSpace=wrap;html=1;" parent="1" vertex="1">
          <mxGeometry x="220" y="600" width="60" height="50" as="geometry" />
        </mxCell>
        <mxCell id="8RMNlt9CvRjKdPwkDtNw-79" value="favorite_id" style="ellipse;whiteSpace=wrap;html=1;" parent="1" vertex="1">
          <mxGeometry x="-160" y="430" width="60" height="50" as="geometry" />
        </mxCell>
        <mxCell id="8RMNlt9CvRjKdPwkDtNw-80" value="username" style="ellipse;whiteSpace=wrap;html=1;" parent="1" vertex="1">
          <mxGeometry x="-100" y="485" width="60" height="50" as="geometry" />
        </mxCell>
        <mxCell id="8RMNlt9CvRjKdPwkDtNw-81" value="team_id" style="ellipse;whiteSpace=wrap;html=1;" parent="1" vertex="1">
          <mxGeometry x="-20" y="485" width="60" height="50" as="geometry" />
        </mxCell>
        <mxCell id="8RMNlt9CvRjKdPwkDtNw-82" value="admin_id" style="ellipse;whiteSpace=wrap;html=1;" parent="1" vertex="1">
          <mxGeometry x="1070" y="300" width="60" height="50" as="geometry" />
        </mxCell>
        <mxCell id="8RMNlt9CvRjKdPwkDtNw-83" value="username" style="ellipse;whiteSpace=wrap;html=1;" parent="1" vertex="1">
          <mxGeometry x="1100" y="365" width="60" height="50" as="geometry" />
        </mxCell>
        <mxCell id="8RMNlt9CvRjKdPwkDtNw-84" value="password" style="ellipse;whiteSpace=wrap;html=1;" parent="1" vertex="1">
          <mxGeometry x="1100" y="440" width="60" height="50" as="geometry" />
        </mxCell>
        <mxCell id="8RMNlt9CvRjKdPwkDtNw-87" value="" style="endArrow=none;html=1;rounded=0;entryX=0;entryY=0.5;entryDx=0;entryDy=0;exitX=1;exitY=0.5;exitDx=0;exitDy=0;" parent="1" source="8RMNlt9CvRjKdPwkDtNw-57" target="8RMNlt9CvRjKdPwkDtNw-84" edge="1">
          <mxGeometry width="50" height="50" relative="1" as="geometry">
            <mxPoint x="1030" y="600" as="sourcePoint" />
            <mxPoint x="1080" y="550" as="targetPoint" />
          </mxGeometry>
        </mxCell>
        <mxCell id="8RMNlt9CvRjKdPwkDtNw-89" value="" style="endArrow=none;html=1;rounded=0;entryX=0;entryY=0.5;entryDx=0;entryDy=0;exitX=1;exitY=0.5;exitDx=0;exitDy=0;" parent="1" source="8RMNlt9CvRjKdPwkDtNw-57" target="8RMNlt9CvRjKdPwkDtNw-83" edge="1">
          <mxGeometry width="50" height="50" relative="1" as="geometry">
            <mxPoint x="1040" y="400" as="sourcePoint" />
            <mxPoint x="1110" y="475" as="targetPoint" />
          </mxGeometry>
        </mxCell>
        <mxCell id="8RMNlt9CvRjKdPwkDtNw-90" value="" style="endArrow=none;html=1;rounded=0;entryX=0;entryY=1;entryDx=0;entryDy=0;" parent="1" target="8RMNlt9CvRjKdPwkDtNw-82" edge="1">
          <mxGeometry width="50" height="50" relative="1" as="geometry">
            <mxPoint x="1030" y="390" as="sourcePoint" />
            <mxPoint x="1120" y="485" as="targetPoint" />
          </mxGeometry>
        </mxCell>
        <mxCell id="8RMNlt9CvRjKdPwkDtNw-91" value="" style="endArrow=none;html=1;rounded=0;entryX=0;entryY=0.5;entryDx=0;entryDy=0;exitX=1;exitY=0.5;exitDx=0;exitDy=0;" parent="1" source="8RMNlt9CvRjKdPwkDtNw-24" target="8RMNlt9CvRjKdPwkDtNw-68" edge="1">
          <mxGeometry width="50" height="50" relative="1" as="geometry">
            <mxPoint x="1030" y="240" as="sourcePoint" />
            <mxPoint x="1080" y="190" as="targetPoint" />
          </mxGeometry>
        </mxCell>
        <mxCell id="8RMNlt9CvRjKdPwkDtNw-92" value="" style="endArrow=none;html=1;rounded=0;entryX=0;entryY=1;entryDx=0;entryDy=0;exitX=1;exitY=0.5;exitDx=0;exitDy=0;" parent="1" source="8RMNlt9CvRjKdPwkDtNw-24" target="8RMNlt9CvRjKdPwkDtNw-67" edge="1">
          <mxGeometry width="50" height="50" relative="1" as="geometry">
            <mxPoint x="1070" y="190" as="sourcePoint" />
            <mxPoint x="1140" y="175" as="targetPoint" />
          </mxGeometry>
        </mxCell>
        <mxCell id="8RMNlt9CvRjKdPwkDtNw-93" value="" style="endArrow=none;html=1;rounded=0;entryX=0.5;entryY=1;entryDx=0;entryDy=0;exitX=0.5;exitY=0;exitDx=0;exitDy=0;" parent="1" source="8RMNlt9CvRjKdPwkDtNw-24" target="8RMNlt9CvRjKdPwkDtNw-66" edge="1">
          <mxGeometry width="50" height="50" relative="1" as="geometry">
            <mxPoint x="1070" y="190" as="sourcePoint" />
            <mxPoint x="1112" y="123" as="targetPoint" />
          </mxGeometry>
        </mxCell>
        <mxCell id="8RMNlt9CvRjKdPwkDtNw-94" value="" style="endArrow=none;html=1;rounded=0;entryX=0.5;entryY=1;entryDx=0;entryDy=0;exitX=0.5;exitY=0;exitDx=0;exitDy=0;" parent="1" source="8RMNlt9CvRjKdPwkDtNw-24" target="8RMNlt9CvRjKdPwkDtNw-65" edge="1">
          <mxGeometry width="50" height="50" relative="1" as="geometry">
            <mxPoint x="1080" y="200" as="sourcePoint" />
            <mxPoint x="1122" y="133" as="targetPoint" />
          </mxGeometry>
        </mxCell>
        <mxCell id="8RMNlt9CvRjKdPwkDtNw-95" value="" style="endArrow=none;html=1;rounded=0;entryX=0;entryY=0.5;entryDx=0;entryDy=0;exitX=0.5;exitY=0;exitDx=0;exitDy=0;" parent="1" source="8RMNlt9CvRjKdPwkDtNw-16" target="8RMNlt9CvRjKdPwkDtNw-22" edge="1">
          <mxGeometry width="50" height="50" relative="1" as="geometry">
            <mxPoint x="1090" y="210" as="sourcePoint" />
            <mxPoint x="1132" y="143" as="targetPoint" />
          </mxGeometry>
        </mxCell>
        <mxCell id="8RMNlt9CvRjKdPwkDtNw-96" value="" style="endArrow=none;html=1;rounded=0;entryX=0;entryY=0.5;entryDx=0;entryDy=0;" parent="1" target="8RMNlt9CvRjKdPwkDtNw-64" edge="1">
          <mxGeometry width="50" height="50" relative="1" as="geometry">
            <mxPoint x="780" y="30" as="sourcePoint" />
            <mxPoint x="960" y="25" as="targetPoint" />
          </mxGeometry>
        </mxCell>
        <mxCell id="8RMNlt9CvRjKdPwkDtNw-97" value="" style="endArrow=none;html=1;rounded=0;entryX=0.5;entryY=1;entryDx=0;entryDy=0;" parent="1" target="8RMNlt9CvRjKdPwkDtNw-63" edge="1">
          <mxGeometry width="50" height="50" relative="1" as="geometry">
            <mxPoint x="780" y="30" as="sourcePoint" />
            <mxPoint x="945" y="-35" as="targetPoint" />
          </mxGeometry>
        </mxCell>
        <mxCell id="8RMNlt9CvRjKdPwkDtNw-98" value="" style="endArrow=none;html=1;rounded=0;entryX=0.5;entryY=1;entryDx=0;entryDy=0;exitX=0.5;exitY=0;exitDx=0;exitDy=0;" parent="1" source="8RMNlt9CvRjKdPwkDtNw-16" target="8RMNlt9CvRjKdPwkDtNw-20" edge="1">
          <mxGeometry width="50" height="50" relative="1" as="geometry">
            <mxPoint x="800" y="50" as="sourcePoint" />
            <mxPoint x="955" y="-25" as="targetPoint" />
          </mxGeometry>
        </mxCell>
        <mxCell id="8RMNlt9CvRjKdPwkDtNw-99" value="" style="endArrow=none;html=1;rounded=0;entryX=0.5;entryY=1;entryDx=0;entryDy=0;exitX=0.5;exitY=0;exitDx=0;exitDy=0;" parent="1" source="8RMNlt9CvRjKdPwkDtNw-16" target="8RMNlt9CvRjKdPwkDtNw-18" edge="1">
          <mxGeometry width="50" height="50" relative="1" as="geometry">
            <mxPoint x="810" y="60" as="sourcePoint" />
            <mxPoint x="965" y="-15" as="targetPoint" />
          </mxGeometry>
        </mxCell>
        <mxCell id="8RMNlt9CvRjKdPwkDtNw-100" value="" style="endArrow=none;html=1;rounded=0;entryX=1;entryY=1;entryDx=0;entryDy=0;exitX=0.5;exitY=0;exitDx=0;exitDy=0;" parent="1" source="8RMNlt9CvRjKdPwkDtNw-16" target="8RMNlt9CvRjKdPwkDtNw-17" edge="1">
          <mxGeometry width="50" height="50" relative="1" as="geometry">
            <mxPoint x="820" y="70" as="sourcePoint" />
            <mxPoint x="975" y="-5" as="targetPoint" />
          </mxGeometry>
        </mxCell>
        <mxCell id="8RMNlt9CvRjKdPwkDtNw-101" value="" style="endArrow=none;html=1;rounded=0;entryX=0.5;entryY=1;entryDx=0;entryDy=0;exitX=0.5;exitY=0;exitDx=0;exitDy=0;" parent="1" source="8RMNlt9CvRjKdPwkDtNw-10" target="8RMNlt9CvRjKdPwkDtNw-13" edge="1">
          <mxGeometry width="50" height="50" relative="1" as="geometry">
            <mxPoint x="430" y="19.89" as="sourcePoint" />
            <mxPoint x="585" y="-55.11" as="targetPoint" />
          </mxGeometry>
        </mxCell>
        <mxCell id="8RMNlt9CvRjKdPwkDtNw-102" value="" style="endArrow=none;html=1;rounded=0;entryX=0.5;entryY=1;entryDx=0;entryDy=0;exitX=0.5;exitY=0;exitDx=0;exitDy=0;" parent="1" source="8RMNlt9CvRjKdPwkDtNw-10" target="8RMNlt9CvRjKdPwkDtNw-12" edge="1">
          <mxGeometry width="50" height="50" relative="1" as="geometry">
            <mxPoint x="440" y="40" as="sourcePoint" />
            <mxPoint x="490" y="-10" as="targetPoint" />
          </mxGeometry>
        </mxCell>
        <mxCell id="8RMNlt9CvRjKdPwkDtNw-103" value="" style="endArrow=none;html=1;rounded=0;entryX=0;entryY=0.5;entryDx=0;entryDy=0;exitX=0.5;exitY=0;exitDx=0;exitDy=0;" parent="1" source="8RMNlt9CvRjKdPwkDtNw-1" target="8RMNlt9CvRjKdPwkDtNw-2" edge="1">
          <mxGeometry width="50" height="50" relative="1" as="geometry">
            <mxPoint x="450" y="50" as="sourcePoint" />
            <mxPoint x="500" as="targetPoint" />
          </mxGeometry>
        </mxCell>
        <mxCell id="8RMNlt9CvRjKdPwkDtNw-104" value="" style="endArrow=none;html=1;rounded=0;entryX=0.5;entryY=1;entryDx=0;entryDy=0;exitX=0.5;exitY=0;exitDx=0;exitDy=0;" parent="1" source="8RMNlt9CvRjKdPwkDtNw-1" target="8RMNlt9CvRjKdPwkDtNw-8" edge="1">
          <mxGeometry width="50" height="50" relative="1" as="geometry">
            <mxPoint x="200" y="80" as="sourcePoint" />
            <mxPoint x="270" y="25" as="targetPoint" />
          </mxGeometry>
        </mxCell>
        <mxCell id="8RMNlt9CvRjKdPwkDtNw-105" value="" style="endArrow=none;html=1;rounded=0;entryX=0.5;entryY=1;entryDx=0;entryDy=0;exitX=0.5;exitY=0;exitDx=0;exitDy=0;" parent="1" source="8RMNlt9CvRjKdPwkDtNw-1" target="8RMNlt9CvRjKdPwkDtNw-3" edge="1">
          <mxGeometry width="50" height="50" relative="1" as="geometry">
            <mxPoint x="210" y="90" as="sourcePoint" />
            <mxPoint x="280" y="35" as="targetPoint" />
          </mxGeometry>
        </mxCell>
        <mxCell id="8RMNlt9CvRjKdPwkDtNw-106" value="" style="endArrow=none;html=1;rounded=0;entryX=0.5;entryY=1;entryDx=0;entryDy=0;exitX=0.5;exitY=0;exitDx=0;exitDy=0;" parent="1" source="8RMNlt9CvRjKdPwkDtNw-1" target="8RMNlt9CvRjKdPwkDtNw-7" edge="1">
          <mxGeometry width="50" height="50" relative="1" as="geometry">
            <mxPoint x="200" y="80" as="sourcePoint" />
            <mxPoint x="160" y="-20" as="targetPoint" />
          </mxGeometry>
        </mxCell>
        <mxCell id="8RMNlt9CvRjKdPwkDtNw-107" value="" style="endArrow=none;html=1;rounded=0;entryX=1;entryY=0.5;entryDx=0;entryDy=0;exitX=0.5;exitY=0;exitDx=0;exitDy=0;" parent="1" source="8RMNlt9CvRjKdPwkDtNw-1" target="8RMNlt9CvRjKdPwkDtNw-5" edge="1">
          <mxGeometry width="50" height="50" relative="1" as="geometry">
            <mxPoint x="210" y="90" as="sourcePoint" />
            <mxPoint x="170" y="-10" as="targetPoint" />
          </mxGeometry>
        </mxCell>
        <mxCell id="8RMNlt9CvRjKdPwkDtNw-108" value="" style="endArrow=none;html=1;rounded=0;entryX=1;entryY=0.5;entryDx=0;entryDy=0;exitX=0.5;exitY=0;exitDx=0;exitDy=0;" parent="1" source="8RMNlt9CvRjKdPwkDtNw-1" target="8RMNlt9CvRjKdPwkDtNw-4" edge="1">
          <mxGeometry width="50" height="50" relative="1" as="geometry">
            <mxPoint x="220" y="100" as="sourcePoint" />
            <mxPoint x="180" as="targetPoint" />
          </mxGeometry>
        </mxCell>
        <mxCell id="8RMNlt9CvRjKdPwkDtNw-109" value="" style="endArrow=none;html=1;rounded=0;exitX=0.5;exitY=0;exitDx=0;exitDy=0;" parent="1" source="8RMNlt9CvRjKdPwkDtNw-80" edge="1">
          <mxGeometry width="50" height="50" relative="1" as="geometry">
            <mxPoint x="-50" y="490" as="sourcePoint" />
            <mxPoint y="440" as="targetPoint" />
          </mxGeometry>
        </mxCell>
        <mxCell id="8RMNlt9CvRjKdPwkDtNw-110" value="" style="endArrow=none;html=1;rounded=0;entryX=0.5;entryY=1;entryDx=0;entryDy=0;" parent="1" source="8RMNlt9CvRjKdPwkDtNw-81" target="8RMNlt9CvRjKdPwkDtNw-27" edge="1">
          <mxGeometry width="50" height="50" relative="1" as="geometry">
            <mxPoint x="-60" y="495" as="sourcePoint" />
            <mxPoint x="10" y="450" as="targetPoint" />
          </mxGeometry>
        </mxCell>
        <mxCell id="8RMNlt9CvRjKdPwkDtNw-111" value="" style="endArrow=none;html=1;rounded=0;exitX=1;exitY=0.5;exitDx=0;exitDy=0;" parent="1" source="8RMNlt9CvRjKdPwkDtNw-79" edge="1">
          <mxGeometry width="50" height="50" relative="1" as="geometry">
            <mxPoint x="-50" y="505" as="sourcePoint" />
            <mxPoint y="440" as="targetPoint" />
          </mxGeometry>
        </mxCell>
        <mxCell id="8RMNlt9CvRjKdPwkDtNw-112" value="" style="endArrow=none;html=1;rounded=0;entryX=0.5;entryY=1;entryDx=0;entryDy=0;exitX=0;exitY=0.5;exitDx=0;exitDy=0;" parent="1" source="8RMNlt9CvRjKdPwkDtNw-69" target="8RMNlt9CvRjKdPwkDtNw-25" edge="1">
          <mxGeometry width="50" height="50" relative="1" as="geometry">
            <mxPoint x="510" y="650" as="sourcePoint" />
            <mxPoint x="560" y="600" as="targetPoint" />
          </mxGeometry>
        </mxCell>
        <mxCell id="8RMNlt9CvRjKdPwkDtNw-113" value="" style="endArrow=none;html=1;rounded=0;entryX=0.5;entryY=1;entryDx=0;entryDy=0;exitX=0;exitY=0.5;exitDx=0;exitDy=0;" parent="1" source="8RMNlt9CvRjKdPwkDtNw-70" target="8RMNlt9CvRjKdPwkDtNw-25" edge="1">
          <mxGeometry width="50" height="50" relative="1" as="geometry">
            <mxPoint x="620" y="625" as="sourcePoint" />
            <mxPoint x="530" y="580" as="targetPoint" />
          </mxGeometry>
        </mxCell>
        <mxCell id="8RMNlt9CvRjKdPwkDtNw-114" value="" style="endArrow=none;html=1;rounded=0;entryX=0.5;entryY=1;entryDx=0;entryDy=0;exitX=0.5;exitY=0;exitDx=0;exitDy=0;" parent="1" source="8RMNlt9CvRjKdPwkDtNw-72" target="8RMNlt9CvRjKdPwkDtNw-25" edge="1">
          <mxGeometry width="50" height="50" relative="1" as="geometry">
            <mxPoint x="595" y="685" as="sourcePoint" />
            <mxPoint x="530" y="580" as="targetPoint" />
          </mxGeometry>
        </mxCell>
        <mxCell id="8RMNlt9CvRjKdPwkDtNw-115" value="" style="endArrow=none;html=1;rounded=0;exitX=0.5;exitY=0;exitDx=0;exitDy=0;" parent="1" source="8RMNlt9CvRjKdPwkDtNw-73" edge="1">
          <mxGeometry width="50" height="50" relative="1" as="geometry">
            <mxPoint x="605" y="695" as="sourcePoint" />
            <mxPoint x="520" y="570" as="targetPoint" />
          </mxGeometry>
        </mxCell>
        <mxCell id="8RMNlt9CvRjKdPwkDtNw-116" value="" style="endArrow=none;html=1;rounded=0;exitX=0.5;exitY=0;exitDx=0;exitDy=0;" parent="1" source="8RMNlt9CvRjKdPwkDtNw-74" edge="1">
          <mxGeometry width="50" height="50" relative="1" as="geometry">
            <mxPoint x="615" y="705" as="sourcePoint" />
            <mxPoint x="520" y="570" as="targetPoint" />
          </mxGeometry>
        </mxCell>
        <mxCell id="8RMNlt9CvRjKdPwkDtNw-117" value="" style="endArrow=none;html=1;rounded=0;exitX=1;exitY=0.5;exitDx=0;exitDy=0;entryX=0.5;entryY=1;entryDx=0;entryDy=0;" parent="1" source="8RMNlt9CvRjKdPwkDtNw-75" target="8RMNlt9CvRjKdPwkDtNw-25" edge="1">
          <mxGeometry width="50" height="50" relative="1" as="geometry">
            <mxPoint x="405" y="710" as="sourcePoint" />
            <mxPoint x="300" y="565" as="targetPoint" />
          </mxGeometry>
        </mxCell>
        <mxCell id="8RMNlt9CvRjKdPwkDtNw-118" value="" style="endArrow=none;html=1;rounded=0;entryX=0.5;entryY=1;entryDx=0;entryDy=0;exitX=1;exitY=0.5;exitDx=0;exitDy=0;" parent="1" source="8RMNlt9CvRjKdPwkDtNw-77" target="8RMNlt9CvRjKdPwkDtNw-25" edge="1">
          <mxGeometry width="50" height="50" relative="1" as="geometry">
            <mxPoint x="635" y="725" as="sourcePoint" />
            <mxPoint x="570" y="620" as="targetPoint" />
          </mxGeometry>
        </mxCell>
        <mxCell id="8RMNlt9CvRjKdPwkDtNw-119" value="" style="endArrow=none;html=1;rounded=0;entryX=0.5;entryY=1;entryDx=0;entryDy=0;exitX=1;exitY=0.5;exitDx=0;exitDy=0;" parent="1" source="8RMNlt9CvRjKdPwkDtNw-78" target="8RMNlt9CvRjKdPwkDtNw-25" edge="1">
          <mxGeometry width="50" height="50" relative="1" as="geometry">
            <mxPoint x="645" y="735" as="sourcePoint" />
            <mxPoint x="580" y="630" as="targetPoint" />
          </mxGeometry>
        </mxCell>
        <mxCell id="yDviiVXZi9QS8FwSzi6r-30" value="" style="endArrow=none;html=1;rounded=0;" parent="1" edge="1">
          <mxGeometry width="50" height="50" relative="1" as="geometry">
            <mxPoint x="270" y="25.62" as="sourcePoint" />
            <mxPoint x="310" y="25.62" as="targetPoint" />
          </mxGeometry>
        </mxCell>
        <mxCell id="yDviiVXZi9QS8FwSzi6r-31" value="" style="endArrow=none;html=1;rounded=0;" parent="1" edge="1">
          <mxGeometry width="50" height="50" relative="1" as="geometry">
            <mxPoint x="370" y="-35.25" as="sourcePoint" />
            <mxPoint x="410" y="-35.25" as="targetPoint" />
          </mxGeometry>
        </mxCell>
        <mxCell id="yDviiVXZi9QS8FwSzi6r-32" value="" style="endArrow=none;html=1;rounded=0;" parent="1" edge="1">
          <mxGeometry width="50" height="50" relative="1" as="geometry">
            <mxPoint x="640" y="-25.379999999999995" as="sourcePoint" />
            <mxPoint x="680" y="-25.379999999999995" as="targetPoint" />
          </mxGeometry>
        </mxCell>
        <mxCell id="yDviiVXZi9QS8FwSzi6r-33" value="" style="endArrow=none;html=1;rounded=0;entryX=0.978;entryY=0.588;entryDx=0;entryDy=0;entryPerimeter=0;" parent="1" edge="1">
          <mxGeometry width="50" height="50" relative="1" as="geometry">
            <mxPoint x="912" y="105" as="sourcePoint" />
            <mxPoint x="970.2400000000002" y="104.39999999999986" as="targetPoint" />
          </mxGeometry>
        </mxCell>
        <mxCell id="yDviiVXZi9QS8FwSzi6r-34" value="" style="endArrow=none;html=1;rounded=0;" parent="1" edge="1">
          <mxGeometry width="50" height="50" relative="1" as="geometry">
            <mxPoint x="1080" y="334.68" as="sourcePoint" />
            <mxPoint x="1120" y="334.68" as="targetPoint" />
          </mxGeometry>
        </mxCell>
        <mxCell id="yDviiVXZi9QS8FwSzi6r-35" value="" style="endArrow=none;html=1;rounded=0;" parent="1" edge="1">
          <mxGeometry width="50" height="50" relative="1" as="geometry">
            <mxPoint x="230" y="634.68" as="sourcePoint" />
            <mxPoint x="270" y="634.68" as="targetPoint" />
          </mxGeometry>
        </mxCell>
        <mxCell id="yDviiVXZi9QS8FwSzi6r-38" value="" style="endArrow=none;dashed=1;html=1;rounded=0;" parent="1" edge="1">
          <mxGeometry width="50" height="50" relative="1" as="geometry">
            <mxPoint x="215" y="704" as="sourcePoint" />
            <mxPoint x="275" y="704" as="targetPoint" />
          </mxGeometry>
        </mxCell>
        <mxCell id="yDviiVXZi9QS8FwSzi6r-39" value="" style="endArrow=none;dashed=1;html=1;rounded=0;" parent="1" edge="1">
          <mxGeometry width="50" height="50" relative="1" as="geometry">
            <mxPoint x="-15" y="520" as="sourcePoint" />
            <mxPoint x="35" y="520" as="targetPoint" />
          </mxGeometry>
        </mxCell>
        <mxCell id="yDviiVXZi9QS8FwSzi6r-40" value="" style="endArrow=none;dashed=1;html=1;rounded=0;" parent="1" edge="1">
          <mxGeometry width="50" height="50" relative="1" as="geometry">
            <mxPoint x="-93" y="520" as="sourcePoint" />
            <mxPoint x="-48" y="520" as="targetPoint" />
          </mxGeometry>
        </mxCell>
        <mxCell id="yDviiVXZi9QS8FwSzi6r-41" value="" style="endArrow=none;html=1;rounded=0;" parent="1" edge="1">
          <mxGeometry width="50" height="50" relative="1" as="geometry">
            <mxPoint x="-151" y="464.67999999999995" as="sourcePoint" />
            <mxPoint x="-111" y="464.67999999999995" as="targetPoint" />
          </mxGeometry>
        </mxCell>
        <mxCell id="yDviiVXZi9QS8FwSzi6r-42" value="" style="endArrow=none;dashed=1;html=1;rounded=0;" parent="1" edge="1">
          <mxGeometry width="50" height="50" relative="1" as="geometry">
            <mxPoint x="1008" y="105" as="sourcePoint" />
            <mxPoint x="1052" y="104.88999999999999" as="targetPoint" />
          </mxGeometry>
        </mxCell>
      </root>
    </mxGraphModel>
  </diagram>
</mxfile>
